<?xml version="1.0" standalone="no"?>
<!DOCTYPE svg PUBLIC "-//W3C//DTD SVG 20010904//EN"
 "http://www.w3.org/TR/2001/REC-SVG-20010904/DTD/svg10.dtd">
<svg version="1.0" xmlns="http://www.w3.org/2000/svg"
 width="147.000000pt" height="147.000000pt" viewBox="0 0 147.000000 147.000000"
 preserveAspectRatio="xMidYMid meet">
<metadata>
Created by potrace 1.11, written by Peter Selinger 2001-2013
</metadata>
<g transform="translate(0.000000,147.000000) scale(0.100000,-0.100000)"
fill="#000000" stroke="none">
<path d="M290 1180 c-89 -30 -161 -123 -189 -245 -6 -27 -14 -61 -17 -75 -3
-14 -7 -86 -9 -160 -3 -118 -1 -143 18 -201 42 -123 107 -190 220 -224 69 -21
172 -14 231 14 82 40 180 156 227 272 6 12 -14 24 -89 57 -52 23 -96 41 -96
39 -1 -1 -18 -37 -39 -80 -44 -93 -80 -120 -142 -112 -90 12 -137 85 -143 220
-9 213 103 414 192 344 29 -23 47 -72 48 -129 0 -22 5 -40 11 -40 6 0 57 16
114 36 115 41 111 34 72 121 -60 134 -260 213 -409 163z"/>
<path d="M880 1156 l-55 -11 -3 -417 -2 -417 57 -13 c32 -7 117 -13 188 -13
129 0 131 0 200 35 57 29 75 44 100 84 27 45 30 57 30 135 0 69 -4 94 -22 126
-24 45 -54 76 -96 97 l-28 14 26 29 c35 41 48 88 42 150 -9 101 -59 163 -154
196 -57 19 -202 22 -283 5z m249 -167 c36 -13 51 -35 51 -76 -1 -53 -41 -84
-120 -90 l-60 -5 0 85 c0 59 4 87 13 90 22 10 83 7 116 -4z m0 -310 c62 -13
101 -54 101 -104 0 -80 -44 -114 -156 -122 l-74 -6 0 122 0 121 40 0 c21 0 62
-5 89 -11z"/>
</g>
</svg>
